# xmcd CD database file
#
# Track frame offsets:
#	150
#	17685
#	38235
#	59737
#	72927
#	85810
#	96755
#	114295
#	133590
#	147627
#	158507
#	172392
#
# Disc length: 2504 seconds
#
# Revision: 4
# Processed by: cddbd v1.5.2PL0 Copyright (c) Steve Scherf et al.
# Submitted via: CDex 1.70beta2
#
DISCID=a809c60c
DTITLE=Bud Powell - The Amazing Bud Powell Vol.1
DYEAR=1951
DGENRE=Jazz
TTITLE0=Un Poco Loco (1st take)
TTITLE1=Un Poco Loco (2nd take)
TTITLE2=Un Poco Loco
TTITLE3=Dance Of The Infidels
TTITLE4=52nd St. Thema
TTITLE5=It Could Happen To You (Alternate Master)
TTITLE6=A Night In Tunisia (Alternate Master)
TTITLE7=A Night In Tunisia
TTITLE8=Wail
TTITLE9=Ornithology
TTITLE10=Bouncing With Bud
TTITLE11=Parisian Throughfare
EXTD=YEAR: 1951
EXTT0=
EXTT1=
EXTT2=
EXTT3=
EXTT4=
EXTT5=
EXTT6=
EXTT7=
EXTT8=
EXTT9=
EXTT10=
EXTT11=
PLAYORDER=
